<mxfile host="Electron" modified="2023-08-22T17:59:09.722Z" agent="Mozilla/5.0 (X11; Linux x86_64) AppleWebKit/537.36 (KHTML, like Gecko) draw.io/21.6.5 Chrome/114.0.5735.243 Electron/25.3.1 Safari/537.36" etag="msE4l19gZrqNYN19hcBm" version="21.6.5" type="device">
  <diagram name="Страница 1" id="8bOvh_2MI7-kgEv9PxmU">
    <mxGraphModel dx="819" dy="477" grid="1" gridSize="10" guides="1" tooltips="1" connect="1" arrows="1" fold="1" page="1" pageScale="1" pageWidth="827" pageHeight="1169" math="0" shadow="0">
      <root>
        <mxCell id="0" />
        <mxCell id="1" parent="0" />
        <mxCell id="etasY0UdCkXMZBnz5v8i-2" value="" style="rounded=0;whiteSpace=wrap;html=1;fillColor=#fff2cc;strokeColor=#d6b656;" vertex="1" parent="1">
          <mxGeometry x="120" y="160" width="520" height="320" as="geometry" />
        </mxCell>
        <mxCell id="etasY0UdCkXMZBnz5v8i-3" value="" style="rounded=0;whiteSpace=wrap;html=1;fillColor=#f8cecc;strokeColor=#b85450;" vertex="1" parent="1">
          <mxGeometry x="160" y="200" width="40" height="240" as="geometry" />
        </mxCell>
        <mxCell id="etasY0UdCkXMZBnz5v8i-4" value="&lt;font&gt;Avalon/AXI_to_reg&lt;/font&gt;" style="text;html=1;strokeColor=none;fillColor=none;align=center;verticalAlign=middle;whiteSpace=wrap;rounded=0;rotation=-90;fontFamily=Times New Roman;" vertex="1" parent="1">
          <mxGeometry x="150" y="300" width="60" height="30" as="geometry" />
        </mxCell>
        <mxCell id="etasY0UdCkXMZBnz5v8i-6" value="FIFO TX" style="rounded=0;whiteSpace=wrap;html=1;fillColor=#f8cecc;strokeColor=#b85450;fontFamily=Times New Roman;" vertex="1" parent="1">
          <mxGeometry x="260" y="200" width="120" height="80" as="geometry" />
        </mxCell>
        <mxCell id="etasY0UdCkXMZBnz5v8i-7" value="FIFO RX" style="rounded=0;whiteSpace=wrap;html=1;fillColor=#f8cecc;strokeColor=#b85450;fontFamily=Times New Roman;" vertex="1" parent="1">
          <mxGeometry x="260" y="360" width="120" height="80" as="geometry" />
        </mxCell>
        <mxCell id="etasY0UdCkXMZBnz5v8i-11" value="" style="rounded=0;whiteSpace=wrap;html=1;fillColor=#ffe6cc;strokeColor=#d79b00;" vertex="1" parent="1">
          <mxGeometry x="414" y="200" width="226" height="240" as="geometry" />
        </mxCell>
        <mxCell id="etasY0UdCkXMZBnz5v8i-12" value="UART_TX" style="rounded=0;whiteSpace=wrap;html=1;fillColor=#f8cecc;strokeColor=#b85450;fontFamily=Times New Roman;" vertex="1" parent="1">
          <mxGeometry x="484" y="220" width="120" height="40" as="geometry" />
        </mxCell>
        <mxCell id="etasY0UdCkXMZBnz5v8i-13" value="UART_RX" style="rounded=0;whiteSpace=wrap;html=1;fillColor=#f8cecc;strokeColor=#b85450;fontFamily=Times New Roman;" vertex="1" parent="1">
          <mxGeometry x="484" y="380" width="120" height="40" as="geometry" />
        </mxCell>
        <mxCell id="etasY0UdCkXMZBnz5v8i-5" value="BaudGen" style="rounded=0;whiteSpace=wrap;html=1;fillColor=#f8cecc;strokeColor=#b85450;fontFamily=Times New Roman;" vertex="1" parent="1">
          <mxGeometry x="484" y="300" width="120" height="40" as="geometry" />
        </mxCell>
        <mxCell id="etasY0UdCkXMZBnz5v8i-14" value="" style="shape=flexArrow;endArrow=classic;html=1;rounded=0;exitX=0.5;exitY=0;exitDx=0;exitDy=0;entryX=0.5;entryY=1;entryDx=0;entryDy=0;fillColor=#d5e8d4;strokeColor=#82b366;" edge="1" parent="1" source="etasY0UdCkXMZBnz5v8i-5" target="etasY0UdCkXMZBnz5v8i-12">
          <mxGeometry width="50" height="50" relative="1" as="geometry">
            <mxPoint x="710" y="280" as="sourcePoint" />
            <mxPoint x="760" y="230" as="targetPoint" />
          </mxGeometry>
        </mxCell>
        <mxCell id="etasY0UdCkXMZBnz5v8i-15" value="" style="shape=flexArrow;endArrow=classic;html=1;rounded=0;exitX=0.5;exitY=1;exitDx=0;exitDy=0;entryX=0.5;entryY=0;entryDx=0;entryDy=0;fillColor=#d5e8d4;strokeColor=#82b366;" edge="1" parent="1" source="etasY0UdCkXMZBnz5v8i-5" target="etasY0UdCkXMZBnz5v8i-13">
          <mxGeometry width="50" height="50" relative="1" as="geometry">
            <mxPoint x="610" y="370" as="sourcePoint" />
            <mxPoint x="610" y="330" as="targetPoint" />
          </mxGeometry>
        </mxCell>
        <mxCell id="etasY0UdCkXMZBnz5v8i-16" value="" style="shape=flexArrow;endArrow=classic;html=1;rounded=0;exitX=1;exitY=0.5;exitDx=0;exitDy=0;entryX=0;entryY=0.5;entryDx=0;entryDy=0;fillColor=#d5e8d4;strokeColor=#82b366;" edge="1" parent="1" source="etasY0UdCkXMZBnz5v8i-3" target="etasY0UdCkXMZBnz5v8i-5">
          <mxGeometry width="50" height="50" relative="1" as="geometry">
            <mxPoint x="270" y="350" as="sourcePoint" />
            <mxPoint x="270" y="310" as="targetPoint" />
          </mxGeometry>
        </mxCell>
        <mxCell id="etasY0UdCkXMZBnz5v8i-17" value="" style="shape=flexArrow;endArrow=classic;html=1;rounded=0;exitX=1;exitY=0.5;exitDx=0;exitDy=0;entryX=0;entryY=0.5;entryDx=0;entryDy=0;fillColor=#d5e8d4;strokeColor=#82b366;" edge="1" parent="1" source="etasY0UdCkXMZBnz5v8i-6" target="etasY0UdCkXMZBnz5v8i-12">
          <mxGeometry width="50" height="50" relative="1" as="geometry">
            <mxPoint x="470" y="140" as="sourcePoint" />
            <mxPoint x="470" y="100" as="targetPoint" />
          </mxGeometry>
        </mxCell>
        <mxCell id="etasY0UdCkXMZBnz5v8i-18" value="" style="shape=flexArrow;endArrow=classic;html=1;rounded=0;fillColor=#d5e8d4;strokeColor=#82b366;entryX=1;entryY=0.5;entryDx=0;entryDy=0;exitX=0;exitY=0.5;exitDx=0;exitDy=0;" edge="1" parent="1" source="etasY0UdCkXMZBnz5v8i-13" target="etasY0UdCkXMZBnz5v8i-7">
          <mxGeometry width="50" height="50" relative="1" as="geometry">
            <mxPoint x="490" y="520" as="sourcePoint" />
            <mxPoint x="504" y="510" as="targetPoint" />
          </mxGeometry>
        </mxCell>
        <mxCell id="etasY0UdCkXMZBnz5v8i-19" value="" style="shape=flexArrow;endArrow=classic;html=1;rounded=0;exitX=0.154;exitY=0.25;exitDx=0;exitDy=0;entryX=0;entryY=0.5;entryDx=0;entryDy=0;fillColor=#d5e8d4;strokeColor=#82b366;exitPerimeter=0;" edge="1" parent="1" source="etasY0UdCkXMZBnz5v8i-2" target="etasY0UdCkXMZBnz5v8i-6">
          <mxGeometry width="50" height="50" relative="1" as="geometry">
            <mxPoint x="230" y="120" as="sourcePoint" />
            <mxPoint x="334" y="120" as="targetPoint" />
            <Array as="points">
              <mxPoint x="230" y="240" />
            </Array>
          </mxGeometry>
        </mxCell>
        <mxCell id="etasY0UdCkXMZBnz5v8i-21" value="" style="shape=flexArrow;endArrow=classic;html=1;rounded=0;fillColor=#d5e8d4;strokeColor=#82b366;exitX=0;exitY=0.5;exitDx=0;exitDy=0;" edge="1" parent="1" source="etasY0UdCkXMZBnz5v8i-7">
          <mxGeometry width="50" height="50" relative="1" as="geometry">
            <mxPoint x="244" y="399.8" as="sourcePoint" />
            <mxPoint x="200" y="399.8" as="targetPoint" />
          </mxGeometry>
        </mxCell>
        <mxCell id="etasY0UdCkXMZBnz5v8i-22" value="" style="shape=flexArrow;endArrow=classic;startArrow=classic;html=1;rounded=0;entryX=0;entryY=0.5;entryDx=0;entryDy=0;fillColor=#1ba1e2;strokeColor=#006EAF;width=20;startSize=5;" edge="1" parent="1" target="etasY0UdCkXMZBnz5v8i-3">
          <mxGeometry width="100" height="100" relative="1" as="geometry">
            <mxPoint x="40" y="320" as="sourcePoint" />
            <mxPoint x="140" y="260" as="targetPoint" />
          </mxGeometry>
        </mxCell>
        <mxCell id="etasY0UdCkXMZBnz5v8i-32" value="Avalon or AXI" style="edgeLabel;html=1;align=center;verticalAlign=middle;resizable=0;points=[];labelBackgroundColor=none;fontFamily=Times New Roman;fontSize=12;" vertex="1" connectable="0" parent="etasY0UdCkXMZBnz5v8i-22">
          <mxGeometry x="-0.1778" y="-1" relative="1" as="geometry">
            <mxPoint as="offset" />
          </mxGeometry>
        </mxCell>
        <mxCell id="etasY0UdCkXMZBnz5v8i-23" value="" style="endArrow=classic;html=1;rounded=0;exitX=1;exitY=0.5;exitDx=0;exitDy=0;" edge="1" parent="1" source="etasY0UdCkXMZBnz5v8i-12">
          <mxGeometry width="50" height="50" relative="1" as="geometry">
            <mxPoint x="660" y="280" as="sourcePoint" />
            <mxPoint x="680" y="240" as="targetPoint" />
          </mxGeometry>
        </mxCell>
        <mxCell id="etasY0UdCkXMZBnz5v8i-24" value="" style="endArrow=classic;html=1;rounded=0;entryX=1;entryY=0.5;entryDx=0;entryDy=0;startArrow=halfCircle;startFill=0;" edge="1" parent="1" target="etasY0UdCkXMZBnz5v8i-13">
          <mxGeometry width="50" height="50" relative="1" as="geometry">
            <mxPoint x="680" y="400" as="sourcePoint" />
            <mxPoint x="736" y="420" as="targetPoint" />
          </mxGeometry>
        </mxCell>
        <mxCell id="etasY0UdCkXMZBnz5v8i-27" value="uart_mm_top" style="text;html=1;strokeColor=none;fillColor=none;align=center;verticalAlign=middle;whiteSpace=wrap;rounded=0;fontFamily=Times New Roman;" vertex="1" parent="1">
          <mxGeometry x="130" y="160" width="60" height="30" as="geometry" />
        </mxCell>
        <mxCell id="etasY0UdCkXMZBnz5v8i-28" value="TX" style="text;html=1;strokeColor=none;fillColor=none;align=center;verticalAlign=middle;whiteSpace=wrap;rounded=0;fontFamily=Times New Roman;" vertex="1" parent="1">
          <mxGeometry x="630" y="210" width="60" height="30" as="geometry" />
        </mxCell>
        <mxCell id="etasY0UdCkXMZBnz5v8i-29" value="RX" style="text;html=1;strokeColor=none;fillColor=none;align=center;verticalAlign=middle;whiteSpace=wrap;rounded=0;fontFamily=Times New Roman;" vertex="1" parent="1">
          <mxGeometry x="630" y="370" width="60" height="30" as="geometry" />
        </mxCell>
        <mxCell id="etasY0UdCkXMZBnz5v8i-30" value="&lt;font&gt;uart_rx_tx&lt;/font&gt;" style="text;html=1;align=center;verticalAlign=middle;resizable=0;points=[];autosize=1;strokeColor=none;fillColor=none;fontFamily=Times New Roman;" vertex="1" parent="1">
          <mxGeometry x="414" y="190" width="70" height="30" as="geometry" />
        </mxCell>
        <mxCell id="etasY0UdCkXMZBnz5v8i-31" value="&lt;font&gt;uart_rx_tx&lt;/font&gt;" style="text;html=1;align=center;verticalAlign=middle;resizable=0;points=[];autosize=1;strokeColor=none;fillColor=none;fontFamily=Times New Roman;" vertex="1" parent="1">
          <mxGeometry x="414" y="190" width="70" height="30" as="geometry" />
        </mxCell>
      </root>
    </mxGraphModel>
  </diagram>
</mxfile>
